# AST/ASF file generated using VICON BodyLanguage
# -----------------------------------------------
:version 1.10
:name VICON
:units
  mass 1.0
  length 0.45
  angle deg
:documentation
   .ast/.asf automatically generated from VICON data using
   VICON BodyBuilder and BodyLanguage model FoxedUp or BRILLIANT.MOD
:root
   order TX TY TZ RX RY RZ
   axis XYZ
   position 0 0 0  
   orientation 0 0 0 
:bonedata
  begin
     id 1 
     name lhipjoint
     direction 0.604623 -0.733026 0.311616 
     length 2.56391 
     axis 0 0 0  XYZ
  end
  begin
     id 2 
     name lfemur
     direction 0.34202 -0.939693 0  
     length 7.75596  
     axis 0 0 20  XYZ
    dof rx ry rz
    limits (-160.0 20.0)
           (-70.0 70.0)
           (-60.0 70.0)
  end
  begin
     id 3 
     name ltibia
     direction 0.34202 -0.939693 0   
     length 7.63697   
     axis 0 0 20   XYZ
    dof rx
    limits (-10.0 170.0)
  end
  begin
     id 4 
     name lfoot
     direction 0.048038 -0.131983 0.990087   
     length 1.94388   
     axis -90 7.62852e-016 20   XYZ
    dof rx rz
    limits (-45.0 90.0)
           (-70.0 20.0)
  end
  begin
     id 5 
     name ltoes
     direction 1.53565e-011 -4.21929e-011 1   
     length 0.984801   
     axis -90 7.62852e-016 20   XYZ
    dof rx
    limits (-90.0 20.0)
  end
  begin
     id 6 
     name rhipjoint
     direction -0.609162 -0.729836 0.31026   
     length 2.57511  
     axis 0 0 0  XYZ 
  end
  begin
     id 7 
     name rfemur
     direction -0.34202 -0.939693 0   
     length 7.60772   
     axis 0 0 -20   XYZ
    dof rx ry rz
    limits (-160.0 20.0)
           (-70.0 70.0)
           (-70.0 60.0)
  end
  begin
     id 8 
     name rtibia
     direction -0.34202 -0.939693 0   
     length 7.68497   
     axis 0 0 -20   XYZ
    dof rx
    limits (-10.0 170.0)
 end
 begin
     id 9 
     name rfoot
     direction -0.0969806 -0.266452 0.958957   
     length 2.01398  
     axis -90 -7.62852e-016 -20   XYZ
    dof rx rz
    limits (-45.0 90.0)
           (-20.0 70.0)
  end
  begin
     id 10 
     name rtoes
     direction -1.53552e-011 -4.21869e-011 1   
     length 1.00896   
     axis -90 -7.62852e-016 -20   XYZ
    dof rx
    limits (-90.0 20.0)
  end
  begin
     id 11 
     name lowerback
     direction 0.0305179 0.993923 -0.10576   
     length 2.09077   
     axis 0 0 0   XYZ
    dof rx ry rz
    limits (-20.0 45.0)
           (-30.0 30.0)
           (-30.0 30.0)
  end
  begin
     id 12 
     name upperback
     direction -0.0137909 0.999867 0.00873764   
     length 2.08918   
     axis 0 0 0   XYZ
    dof rx ry rz
    limits (-20.0 45.0)
           (-30.0 30.0)
           (-30.0 30.0)
  end
  begin
     id 13 
     name thorax
     direction -0.0278536 0.997917 0.0581839   
     length 2.11939   
     axis 0 0 0   XYZ
    dof rx ry rz
    limits (-20.0 45.0)
           (-30.0 30.0)
           (-30.0 30.0)
  end
  begin
     id 14 
     name lowerneck
     direction 0.0138689 0.999837 -0.0116016   
     length 1.74353   
     axis 0 0 0   XYZ
    dof rx ry rz
    limits (-20.0 45.0)
           (-30.0 30.0)
           (-30.0 30.0)
  end
  begin
     id 15 
     name upperneck
     direction -0.00992078 0.999667 0.0238149   
     length 1.71734   
     axis 0 0 0   XYZ
    dof rx ry rz
    limits (-20.0 45.0)
           (-30.0 30.0)
           (-30.0 30.0)
  end
  begin
     id 16
     name head
     direction -0.00530555 0.999941 0.00944937  
     length 1.78249  
     axis 0 0 0   XYZ
    dof rx ry rz
    limits (-20.0 45.0)
           (-30.0 30.0)
           (-30.0 30.0)
  end
  begin
     id 17 
     name lclavicle
     direction 0.929165 0.366864 0.0454227  
     length 3.65686  
     axis 0 0 0   XYZ
    dof ry rz
    limits (-20.0 10.0)
           (0.0 20.0)
  end
  begin
     id 18 
     name lhumerus
     direction 1 -4.4897e-011 3.05413e-018   
     length 5.15218   
     axis -180 -30 -90   XYZ
    dof rx ry rz
    limits (-60.0 90.0)
           (-90.0 90.0)
           (-90.0 90.0)
  end
  begin
     id 19
     name lradius
     direction 1 -4.48963e-011 5.40022e-027   
     length 3.49459   
     axis -180 -30 -90   XYZ
    dof rx
    limits (-10.0 170.0)
  end
  begin
     id 20
     name lwrist
     direction 1 -4.48966e-011 9.79369e-027   
     length 1.7473   
     axis -4.67603e-015 90 90   XYZ
    dof ry
    limits (-180.0 0.0)
 end
  begin
     id 21 
     name lhand
     direction 1 -4.48996e-011 1.9593e-026   
     length 0.512466   
     axis -1.24987e-014 90 90   XYZ
    dof rx rz
    limits (-90.0 90.0)
           (-45.0 45.0)
  end
  begin
     id 22 
     name lfingers
     direction 1 -4.48931e-011 3.91616e-026   
     length 0.413163   
     axis -2.49979e-014 90 90   XYZ
    dof rx
    limits (0.0 90.0)
  end
  begin
     id 23
     name lthumb
     direction 0.707107 -6.34959e-011 0.707107   
     length 0.593222   
     axis -90 45 5.69224e-014   XYZ
    dof rx rz
    limits (-45.0 45.0)
           (-45.0 45.0)
  end
  begin
     id 24 
     name rclavicle
     direction -0.951469 0.307727 0.00346571   
     length 3.42864  
     axis 0 0 0   XYZ 
    dof ry rz
    limits (-10.0 20.0)
           (-20.0 0.0)
  end
  begin
     id 25 
     name rhumerus
     direction -1 -4.48967e-011 2.58643e-027  
     length 5.44344   
     axis -180 30 90   XYZ
    dof rx ry rz
    limits (-90.0 60.0)
           (-90.0 90.0)
           (-90.0 90.0)
  end
  begin
     id 26 
     name rradius
     direction -1 -4.48973e-011 4.26485e-028   
     length 3.58403   
     axis -180 30 90   XYZ
    dof rx
    limits (-10.0 170.0)
  end
  begin
     id 27 
     name rwrist
     direction -1 -4.48962e-011 9.79331e-027   
     length 1.79202   
     axis -4.67603e-015 -90 -90   XYZ
    dof ry
    limits (-180.0 0.0)
  end
  begin
     id 28
     name rhand
     direction -1 -4.48975e-011 1.95891e-026   
     length 0.34249   
     axis -1.24987e-014 -90 -90   XYZ
    dof rx rz
    limits (-90.0 90.0)
           (-45.0 45.0)
  end
  begin
     id 29
     name rfingers
     direction -1 -4.48893e-011 3.9147e-026   
     length 0.276124   
     axis -2.49979e-014 -90 -90   XYZ
    dof rx
    limits (0.0 90.0)
  end
  begin
     id 30
     name rthumb
     direction -0.707107 -6.34898e-011 0.707107   
     length 0.39646   
     axis -90 -45 -5.69224e-014   XYZ
    dof rx rz
    limits (-45.0 45.0)
           (-45.0 45.0)
  end
:hierarchy
  begin
    root lhipjoint rhipjoint lowerback
    lhipjoint lfemur
    lfemur ltibia
    ltibia lfoot
    lfoot ltoes
    rhipjoint rfemur
    rfemur rtibia
    rtibia rfoot
    rfoot rtoes
    lowerback upperback
    upperback thorax
    thorax lowerneck lclavicle rclavicle
    lowerneck upperneck
    upperneck head
    lclavicle lhumerus
    lhumerus lradius
    lradius lwrist
    lwrist lhand lthumb
    lhand lfingers
    rclavicle rhumerus
    rhumerus rradius
    rradius rwrist
    rwrist rhand rthumb
    rhand rfingers
  end

#!OML:ASF H:\charlestonDancing\Project 1\Capture day 1\Session 1\femaleDancer.ASF
:FULLY-SPECIFIED
:DEGREES
279
root -13.207 17.5238 -2.84127 -188.212 161.713 -550.894
lowerback 12.2102 4.73384 11.1666
upperback 3.11299 7.72593 1.43999
thorax -2.23521 3.84892 -5.69137
lowerneck 10.7326 10.6329 20.0733
upperneck 3.10567 16.4448 -9.70213
head 1.67061 8.57345 -5.96617
rclavicle 3.86139e-014 -3.26007e-014
rhumerus -31.0384 26.7008 -98.6806
rradius 41.0946
rwrist 5.18941
rhand -18.2831 -33.0225
rfingers 7.12502
rthumb 7.99715 -62.8512
lclavicle 3.86139e-014 -3.26007e-014
lhumerus -33.2312 19.4655 55.7889
lradius 81.4635
lwrist 28.7583
lhand -14.2854 32.9946
lfingers 7.12502
lthumb 11.8539 62.6391
rfemur -1.23362 -5.42998 33.9973
rtibia 28.3781
rfoot -20.7807 -1.92072
rtoes -10.9126
lfemur -29.2836 1.92478 -0.959413
ltibia 65.9498
lfoot 7.83951 0.600455
ltoes -40.3362
280
root -13.2288 17.5383 -2.82399 -188.171 161.789 -550.498
lowerback 12.1105 4.80791 10.9186
upperback 2.90061 7.78741 1.24103
thorax -2.40156 3.862 -5.77543
lowerneck 10.4327 10.5507 20.3701
upperneck 3.43318 16.3279 -9.82879
head 1.83244 8.52561 -6.01964
rclavicle -4.13969e-014 5.92378e-014
rhumerus -32.1184 25.5008 -98.4427
rradius 40.2954
rwrist 5.20045
rhand -18.1334 -33.0858
rfingers 7.12502
rthumb 8.14158 -62.9089
lclavicle -4.13969e-014 5.92378e-014
lhumerus -32.8507 18.9777 55.3185
lradius 81.2161
lwrist 28.578
lhand -14.3514 33.0498
lfingers 7.12502
lthumb 11.7902 62.6979
rfemur -0.888278 -5.96533 33.5362
rtibia 27.9851
rfoot -20.7783 -1.24153
rtoes -10.6938
lfemur -28.8554 1.85748 -1.27495
ltibia 65.5931
lfoot 7.78084 0.666039
ltoes -40.1641
281
root -13.2455 17.5439 -2.81429 -188.191 161.429 -550.469
lowerback 11.9311 4.72998 10.9934
upperback 2.72268 7.67971 1.14891
thorax -2.48826 3.79654 -5.89485
lowerneck 9.99631 10.4941 20.922
upperneck 3.6603 16.2453 -10.2175
head 2.03191 8.49347 -6.17883
rclavicle 1.67476e-014 4.33351e-014
rhumerus -33.1176 24.5 -98.0115
rradius 39.715
rwrist 4.64059
rhand -18.1776 -34.2016
rfingers 7.12502
rthumb 8.09888 -64.0264
lclavicle 1.67476e-014 4.33351e-014
lhumerus -32.3299 18.5094 54.9842
lradius 80.9362
lwrist 28.3244
lhand -14.4192 33.1941
lfingers 7.12502
lthumb 11.7249 62.8459
rfemur -0.750393 -6.91441 33.3743
rtibia 27.686
rfoot -20.8205 -0.563178
rtoes -10.3964
lfemur -28.825 1.43879 -1.2438
ltibia 65.3263
lfoot 7.82397 0.708981
ltoes -39.0629
282
root -13.2742 17.5484 -2.80301 -188.227 161.77 -550.521
lowerback 11.8809 4.8231 10.9466
upperback 2.58003 7.80209 1.18452
thorax -2.60299 3.84418 -5.84768
lowerneck 9.73435 10.5148 21.1088
upperneck 3.69071 16.2529 -10.5457
head 2.12464 8.49768 -6.28428
rclavicle -6.53008e-014 1.82882e-014
rhumerus -34.0122 23.9731 -97.5653
rradius 39.089
rwrist 3.76398
rhand -18.741 -34.3766
rfingers 7.12502
rthumb 7.55511 -64.2217
lclavicle -6.53008e-014 1.82882e-014
lhumerus -32.0819 18.2261 54.5961
lradius 80.7766
lwrist 28.1257
lhand -14.5074 33.3082
lfingers 7.12502
lthumb 11.6398 62.9649
rfemur -0.593692 -7.17707 33.444
rtibia 27.4703
rfoot -20.7867 0.209618
rtoes -9.39367
lfemur -28.5385 1.70571 -0.915535
ltibia 65.1053
lfoot 7.85558 0.641165
ltoes -37.9757
283
root -13.3079 17.5518 -2.79024 -188.235 162.258 -550.482
lowerback 11.8523 4.91513 10.7277
upperback 2.4611 7.90478 1.25776
thorax -2.73722 3.88263 -5.66821
lowerneck 9.72276 10.5295 21.1532
upperneck 3.48414 16.2847 -11.0009
head 2.11006 8.51196 -6.43298
rclavicle 4.62174e-015 2.06736e-014
rhumerus -34.8633 23.7132 -97.1193
rradius 38.5188
rwrist 3.21786
rhand -18.9136 -33.9316
rfingers 7.12502
rthumb 7.38855 -63.7826
lclavicle 4.62174e-015 2.06736e-014
lhumerus -32.1645 18.0795 54.1204
lradius 80.8025
lwrist 28.189
lhand -14.6446 33.3729
lfingers 7.12502
lthumb 11.5076 63.037
rfemur -0.425629 -7.08059 33.519
rtibia 27.2943
rfoot -20.7224 0.653159
rtoes -9.04435
lfemur -28.1884 2.15973 -0.649473
ltibia 64.9342
lfoot 7.8839 0.513479
ltoes -37.3482
284
root -13.3388 17.5532 -2.7791 -188.314 162.535 -550.52
lowerback 11.8105 4.89016 10.5884
upperback 2.40101 7.85818 1.35549
thorax -2.81969 3.85264 -5.48717
lowerneck 9.81069 10.5555 21.4306
upperneck 3.15066 16.3781 -11.7619
head 2.09677 8.56254 -6.71299
rclavicle 1.95803e-014 1.35174e-014
rhumerus -35.6406 23.5718 -96.651
rradius 38.0815
rwrist 3.10311
rhand -18.6451 -34.3854
rfingers 7.12502
rthumb 7.64767 -64.2271
lclavicle 1.95803e-014 1.35174e-014
lhumerus -32.2796 18.0299 53.6409
lradius 80.873
lwrist 28.3782
lhand -14.7098 33.4808
lfingers 7.12502
lthumb 11.4447 63.1485
rfemur -0.238733 -7.12871 33.651
rtibia 27.135
rfoot -20.6793 0.891327
rtoes -9.39805
lfemur -27.9199 2.47813 -0.366197
ltibia 64.8316
lfoot 7.91379 0.26051
ltoes -37.1126
285
root -13.3654 17.5488 -2.77368 -188.445 162.786 -550.78
lowerback 11.768 4.81829 10.7556
upperback 2.3601 7.78644 1.47366
thorax -2.84641 3.81254 -5.44544
lowerneck 9.84127 10.6033 21.6488
upperneck 2.9904 16.4878 -12.4177
head 2.13511 8.62406 -6.94309
rclavicle 1.49784e-013 3.29983e-014
rhumerus -36.2848 23.5077 -96.186
rradius 37.6241
rwrist 3.05706
rhand -18.4499 -34.6941
rfingers 7.12502
rthumb 7.83611 -64.5288
lclavicle 1.49784e-013 3.29983e-014
lhumerus -32.2406 17.9866 53.2024
lradius 80.8267
lwrist 28.5189
lhand -14.8402 33.5601
lfingers 7.12502
lthumb 11.3188 63.2347
rfemur -0.0959541 -7.27599 33.9812
rtibia 26.9769
rfoot -20.6132 1.19121
rtoes -9.58862
lfemur -27.752 2.87637 0.12385
ltibia 64.7738
lfoot 8.00768 -0.16987
ltoes -37.833
286
root -13.3843 17.5372 -2.77409 -188.614 162.812 -551.234
lowerback 11.7048 4.63288 11.1916
upperback 2.31307 7.59674 1.62721
thorax -2.8577 3.71295 -5.49847
lowerneck 9.95038 10.6815 21.8234
upperneck 2.78743 16.6446 -13.0017
head 2.14836 8.70952 -7.1484
rclavicle -9.88954e-015 1.94809e-014
rhumerus -36.7872 23.4605 -95.6803
rradius 37.0511
rwrist 3.17647
rhand -18.5782 -34.3073
rfingers 7.12502
rthumb 7.71226 -64.1467
lclavicle -9.88954e-015 1.94809e-014
lhumerus -32.192 17.953 52.8348
lradius 80.7345
lwrist 28.5632
lhand -14.8895 33.4363
lfingers 7.12502
lthumb 11.2713 63.1135
rfemur 0.0238917 -7.48617 34.4884
rtibia 26.7208
rfoot -20.4742 1.36329
rtoes -9.38178
lfemur -27.7773 3.13298 0.73571
ltibia 64.752
lfoot 8.17012 -0.627609
ltoes -39.0516
287
root -13.3796 17.5455 -2.7531 -188.729 162.195 -550.916
lowerback 11.3482 4.30206 11.059
upperback 2.44662 7.08343 1.55856
thorax -2.6136 3.48062 -5.40577
lowerneck 9.98978 10.7989 21.8337
upperneck 2.63005 16.818 -13.4021
head 2.1611 8.7987 -7.26681
rclavicle -7.15625e-014 1.98785e-014
rhumerus -37.1228 23.3959 -95.1093
rradius 36.3951
rwrist 3.49714
rhand -18.3919 -33.4902
rfingers 7.12502
rthumb 7.89206 -63.3229
lclavicle -7.15625e-014 1.98785e-014
lhumerus -32.1686 17.9977 52.5504
lradius 80.674
lwrist 28.5473
lhand -14.8036 33.2653
lfingers 7.12502
lthumb 11.3542 62.9379
rfemur 0.388166 -8.42651 33.89
rtibia 26.5698
rfoot -20.6673 1.80525
rtoes -8.90897
lfemur -27.5893 2.61457 0.240781
ltibia 64.6734
lfoot 8.0613 -0.653218
ltoes -39.2922
288
root -13.3903 17.5639 -2.74432 -188.78 161.823 -550.87
lowerback 11.1175 4.05652 11.085
upperback 2.50743 6.72632 1.54485
thorax -2.47724 3.31453 -5.3757
lowerneck 9.97931 10.9345 21.7487
upperneck 2.53623 16.9896 -13.5606
head 2.17193 8.88271 -7.29138
rclavicle 1.2275e-014 -1.43125e-014
rhumerus -37.3517 23.1581 -94.4962
rradius 35.7883
rwrist 3.86901
rhand -18.1205 -32.9914
rfingers 7.12502
rthumb 8.15404 -62.8141
lclavicle 1.2275e-014 -1.43125e-014
lhumerus -32.0737 18.0578 52.3255
lradius 80.614
lwrist 28.588
lhand -14.8512 33.4013
lfingers 7.12502
lthumb 11.3083 63.0765
rfemur 0.475712 -8.80513 33.7808
rtibia 26.5238
rfoot -20.7361 1.85595
rtoes -8.83898
lfemur -27.5611 2.33894 0.151827
ltibia 64.5821
lfoot 8.14231 -0.491927
ltoes -38.0112
